<svg width="48" height="48" viewBox="0 0 48 48" fill="none" xmlns="http://www.w3.org/2000/svg">
<rect width="48" height="48" rx="10" fill="#E0EAFF"/>
<path d="M18.6665 10.6666V14.6666" stroke="#4883FF" stroke-width="1.5" stroke-miterlimit="10" stroke-linecap="round" stroke-linejoin="round"/>
<path d="M29.3335 10.6666V14.6666" stroke="#4883FF" stroke-width="1.5" stroke-miterlimit="10" stroke-linecap="round" stroke-linejoin="round"/>
<path d="M12.6665 20.12H35.3332" stroke="#4883FF" stroke-width="1.5" stroke-miterlimit="10" stroke-linecap="round" stroke-linejoin="round"/>
<path d="M36 19.3333V30.6666C36 34.6666 34 37.3333 29.3333 37.3333H18.6667C14 37.3333 12 34.6666 12 30.6666V19.3333C12 15.3333 14 12.6666 18.6667 12.6666H29.3333C34 12.6666 36 15.3333 36 19.3333Z" stroke="#4883FF" stroke-width="1.5" stroke-miterlimit="10" stroke-linecap="round" stroke-linejoin="round"/>
<path d="M28.9264 26.2666H28.9384" stroke="#4883FF" stroke-width="2" stroke-linecap="round" stroke-linejoin="round"/>
<path d="M28.9264 30.2666H28.9384" stroke="#4883FF" stroke-width="2" stroke-linecap="round" stroke-linejoin="round"/>
<path d="M23.9938 26.2666H24.0058" stroke="#4883FF" stroke-width="2" stroke-linecap="round" stroke-linejoin="round"/>
<path d="M23.9938 30.2666H24.0058" stroke="#4883FF" stroke-width="2" stroke-linecap="round" stroke-linejoin="round"/>
<path d="M19.0592 26.2666H19.0712" stroke="#4883FF" stroke-width="2" stroke-linecap="round" stroke-linejoin="round"/>
<path d="M19.0592 30.2666H19.0712" stroke="#4883FF" stroke-width="2" stroke-linecap="round" stroke-linejoin="round"/>
</svg>
