<svg width="48" height="48" viewBox="0 0 48 48" fill="none" xmlns="http://www.w3.org/2000/svg">
<rect width="48" height="48" rx="10" fill="#FCE7F6"/>
<path d="M36.1066 19.44V28.56C36.1066 30.0533 35.3066 31.44 34.0132 32.2L26.0932 36.7733C24.7999 37.52 23.1999 37.52 21.8932 36.7733L13.9732 32.2C12.6799 31.4533 11.8799 30.0666 11.8799 28.56V19.44C11.8799 17.9467 12.6799 16.5599 13.9732 15.7999L21.8932 11.2266C23.1866 10.48 24.7865 10.48 26.0932 11.2266L34.0132 15.7999C35.3066 16.5599 36.1066 17.9333 36.1066 19.44Z" stroke="#E4387E" stroke-width="1.5" stroke-linecap="round" stroke-linejoin="round"/>
<path d="M23.9997 22.6667C25.7155 22.6667 27.1064 21.2757 27.1064 19.56C27.1064 17.8442 25.7155 16.4534 23.9997 16.4534C22.284 16.4534 20.8931 17.8442 20.8931 19.56C20.8931 21.2757 22.284 22.6667 23.9997 22.6667Z" stroke="#E4387E" stroke-width="1.5" stroke-linecap="round" stroke-linejoin="round"/>
<path d="M29.3332 30.2133C29.3332 27.8133 26.9465 25.8667 23.9998 25.8667C21.0532 25.8667 18.6665 27.8133 18.6665 30.2133" stroke="#E4387E" stroke-width="1.5" stroke-linecap="round" stroke-linejoin="round"/>
</svg>
