<svg width="54" height="54" viewBox="0 0 54 54" fill="none" xmlns="http://www.w3.org/2000/svg">
<path d="M38.1735 0.333252H15.8268C6.12016 0.333252 0.333496 6.11992 0.333496 15.8266V38.1466C0.333496 47.8799 6.12016 53.6666 15.8268 53.6666H38.1468C47.8535 53.6666 53.6402 47.8799 53.6402 38.1733V15.8266C53.6668 6.11992 47.8802 0.333252 38.1735 0.333252Z" fill="#FFA900"/>
<path d="M39.8802 20.0932C39.6935 19.6399 39.3202 19.2665 38.8668 19.0799C38.6535 18.9999 38.4135 18.9465 38.1735 18.9465H33.2135C32.1735 18.9465 31.3468 19.7732 31.3468 20.8132C31.3468 21.8532 32.1735 22.6799 33.2135 22.6799H33.6935L28.0668 28.3065L25.3468 24.2532C25.0268 23.7999 24.5468 23.4799 23.9868 23.4265C23.4002 23.3732 22.8935 23.5599 22.4935 23.9599L14.5468 31.9065C13.8268 32.6265 13.8268 33.7999 14.5468 34.5465C14.9202 34.9199 15.3735 35.0799 15.8535 35.0799C16.3335 35.0799 16.8135 34.8932 17.1602 34.5465L23.5068 28.1999L26.2268 32.2532C26.5468 32.7065 27.0268 33.0265 27.5868 33.0799C28.1735 33.1332 28.6802 32.9465 29.0802 32.5465L36.3335 25.2932V25.7732C36.3335 26.8132 37.1602 27.6399 38.2002 27.6399C39.2402 27.6399 40.0668 26.8132 40.0668 25.7732V20.7865C40.0135 20.5465 39.9868 20.3065 39.8802 20.0932Z" fill="#140532"/>
</svg>
