<svg width="193" height="25" viewBox="0 0 193 25" fill="none" xmlns="http://www.w3.org/2000/svg">
<path d="M19.6046 9.33613C19.6046 11.6491 19.6726 13.9847 19.5819 16.2977C19.5365 17.7489 18.9696 19.0868 18.1987 20.3113C15.9764 23.7581 12.8018 25.3454 8.76543 24.9372C5.72684 24.6424 3.3005 23.1232 1.57713 20.5154C0.375298 18.6787 -0.146248 16.6832 0.0351603 14.5743C0.284597 11.5584 1.57713 8.99599 4.11684 7.22726C6.70191 5.41318 9.55909 4.98234 12.6204 5.82135C13.1419 5.95741 13.6408 6.18417 14.1623 6.38825C14.7065 6.61501 14.9106 6.50163 14.9333 5.88938C14.956 4.71022 14.9333 3.55375 14.9333 2.37459C14.956 1.05938 15.6363 0.265725 16.9061 0.0389648C18.312 -0.210471 19.6046 0.764598 19.6272 2.19319C19.6499 4.55149 19.6272 6.95515 19.6046 9.33613ZM9.87655 20.1753C12.7791 20.2206 14.9333 17.7036 14.8426 15.0278C14.7746 12.3067 12.4163 10.0618 9.62712 10.1751C7.13275 10.2659 4.70642 12.4427 4.79713 15.3453C4.88783 18.0211 7.26881 20.334 9.87655 20.1753Z" fill="#E4387E"/>
<path d="M26.3167 12.7149C26.3167 14.9371 26.3167 17.1594 26.3167 19.3816C26.3167 20.4701 25.7045 21.3318 24.7294 21.6946C23.845 22.012 22.6885 21.7399 22.099 20.9236C21.8042 20.5154 21.5774 19.9712 21.5774 19.495C21.5321 15.0051 21.5774 10.5153 21.5321 6.02544C21.5094 4.55149 22.6432 3.05488 24.616 3.46304C25.6138 3.66713 26.3621 4.66488 26.3621 5.93473C26.3847 8.20234 26.3621 10.4699 26.3621 12.7149C26.3394 12.7149 26.3167 12.7149 26.3167 12.7149Z" fill="#FFA900"/>
<path d="M33.0287 14.2115C33.0287 15.9802 33.0287 17.7489 33.0287 19.5403C33.0287 20.7875 31.963 21.8079 30.6931 21.8306C29.3552 21.8306 28.2668 20.8555 28.2441 19.6083C28.2214 16.0936 28.2214 12.6015 28.1987 9.08667C28.1987 8.17963 28.5162 7.40865 29.2645 6.8871C30.0355 6.34288 32.0537 6.36555 32.6432 7.61273C32.938 8.22499 33.0287 8.81456 33.0287 9.47217C33.0061 11.0595 33.0287 12.6241 33.0287 14.2115Z" fill="#FFA900"/>
<path d="M39.6726 16.0709C39.6726 17.2274 39.6273 18.3612 39.6726 19.5177C39.718 20.7649 38.4254 21.8306 37.337 21.808C35.9311 21.7853 34.9106 20.8102 34.9106 19.4497C34.9106 17.114 34.9106 14.7784 34.9106 12.4428C34.9106 11.5357 35.2735 10.8101 36.0898 10.4246C37.269 9.90305 38.3121 10.1298 39.0604 10.9008C39.5366 11.3997 39.6499 11.9666 39.6499 12.6015C39.6953 13.7807 39.6726 14.9371 39.6726 16.0709Z" fill="#FFA900"/>
<path d="M41.8494 17.749C41.7361 16.5018 42.9379 15.5721 43.981 15.5721C45.1601 15.5494 46.1806 16.4564 46.1806 17.7716C46.1806 19.0188 45.2055 19.9485 43.981 19.9485C42.9152 19.9258 41.7134 18.9508 41.8494 17.749Z" fill="black"/>
<path d="M61.8047 20.192C60.6367 20.192 59.6127 19.92 58.7327 19.376C57.8687 18.816 57.1967 18.064 56.7167 17.12C56.2367 16.176 55.9967 15.136 55.9967 14C55.9967 12.848 56.2367 11.808 56.7167 10.88C57.1967 9.936 57.8687 9.192 58.7327 8.648C59.6127 8.088 60.6367 7.808 61.8047 7.808C62.7967 7.808 63.6447 8 64.3487 8.384C65.0687 8.768 65.6527 9.288 66.1007 9.944V3.2H67.9007V20H66.1007V18.08C65.6527 18.72 65.0687 19.232 64.3487 19.616C63.6447 20 62.7967 20.192 61.8047 20.192ZM62.0447 18.56C62.9407 18.56 63.6927 18.352 64.3007 17.936C64.9247 17.52 65.3967 16.968 65.7167 16.28C66.0367 15.576 66.1967 14.816 66.1967 14C66.1967 13.168 66.0367 12.408 65.7167 11.72C65.3967 11.032 64.9247 10.48 64.3007 10.064C63.6927 9.648 62.9407 9.44 62.0447 9.44C61.1647 9.44 60.4047 9.648 59.7647 10.064C59.1247 10.48 58.6367 11.032 58.3007 11.72C57.9647 12.408 57.7967 13.168 57.7967 14C57.7967 14.816 57.9647 15.576 58.3007 16.28C58.6367 16.968 59.1247 17.52 59.7647 17.936C60.4047 18.352 61.1647 18.56 62.0447 18.56ZM76.0781 20.192C74.9101 20.192 73.8861 19.92 73.0061 19.376C72.1421 18.816 71.4701 18.064 70.9901 17.12C70.5101 16.176 70.2701 15.136 70.2701 14C70.2701 12.848 70.5101 11.808 70.9901 10.88C71.4701 9.936 72.1421 9.192 73.0061 8.648C73.8861 8.088 74.9101 7.808 76.0781 7.808C77.0701 7.808 77.9181 8 78.6221 8.384C79.3421 8.768 79.9261 9.288 80.3741 9.944V8H82.1741V20H80.3741V18.08C79.9261 18.72 79.3421 19.232 78.6221 19.616C77.9181 20 77.0701 20.192 76.0781 20.192ZM76.3181 18.56C77.2141 18.56 77.9661 18.352 78.5741 17.936C79.1981 17.52 79.6701 16.968 79.9901 16.28C80.3101 15.576 80.4701 14.816 80.4701 14C80.4701 13.168 80.3101 12.408 79.9901 11.72C79.6701 11.032 79.1981 10.48 78.5741 10.064C77.9661 9.648 77.2141 9.44 76.3181 9.44C75.4381 9.44 74.6781 9.648 74.0381 10.064C73.3981 10.48 72.9101 11.032 72.5741 11.72C72.2381 12.408 72.0701 13.168 72.0701 14C72.0701 14.816 72.2381 15.576 72.5741 16.28C72.9101 16.968 73.3981 17.52 74.0381 17.936C74.6781 18.352 75.4381 18.56 76.3181 18.56ZM85.2875 20V8H87.0875V9.872C87.5195 9.296 88.0475 8.808 88.6715 8.408C89.2955 8.008 90.0955 7.808 91.0715 7.808C91.9035 7.808 92.6795 8.008 93.3995 8.408C94.1355 8.792 94.7275 9.376 95.1755 10.16C95.6395 10.928 95.8715 11.88 95.8715 13.016V20H94.0715V13.064C94.0715 11.976 93.7595 11.104 93.1355 10.448C92.5115 9.776 91.7035 9.44 90.7115 9.44C90.0395 9.44 89.4315 9.592 88.8875 9.896C88.3435 10.2 87.9035 10.632 87.5675 11.192C87.2475 11.736 87.0875 12.368 87.0875 13.088V20H85.2875ZM103.945 20.192C102.777 20.192 101.753 19.92 100.873 19.376C100.009 18.816 99.3373 18.064 98.8573 17.12C98.3773 16.176 98.1373 15.136 98.1373 14C98.1373 12.848 98.3773 11.808 98.8573 10.88C99.3373 9.936 100.009 9.192 100.873 8.648C101.753 8.088 102.777 7.808 103.945 7.808C104.937 7.808 105.785 8 106.489 8.384C107.209 8.768 107.793 9.288 108.241 9.944V8H110.041V20H108.241V18.08C107.793 18.72 107.209 19.232 106.489 19.616C105.785 20 104.937 20.192 103.945 20.192ZM104.185 18.56C105.081 18.56 105.833 18.352 106.441 17.936C107.065 17.52 107.537 16.968 107.857 16.28C108.177 15.576 108.337 14.816 108.337 14C108.337 13.168 108.177 12.408 107.857 11.72C107.537 11.032 107.065 10.48 106.441 10.064C105.833 9.648 105.081 9.44 104.185 9.44C103.305 9.44 102.545 9.648 101.905 10.064C101.265 10.48 100.777 11.032 100.441 11.72C100.105 12.408 99.9373 13.168 99.9373 14C99.9373 14.816 100.105 15.576 100.441 16.28C100.777 16.968 101.265 17.52 101.905 17.936C102.545 18.352 103.305 18.56 104.185 18.56ZM113.155 20V8H114.955V9.824C115.227 9.344 115.659 8.888 116.251 8.456C116.843 8.024 117.627 7.808 118.603 7.808C119.403 7.808 120.139 8.024 120.811 8.456C121.499 8.872 122.035 9.464 122.419 10.232C122.579 9.96 122.827 9.632 123.163 9.248C123.515 8.864 123.971 8.528 124.531 8.24C125.091 7.952 125.763 7.808 126.547 7.808C127.315 7.808 128.035 8.008 128.707 8.408C129.379 8.808 129.923 9.384 130.339 10.136C130.771 10.872 130.987 11.744 130.987 12.752V20H129.187V12.8C129.187 11.792 128.899 10.984 128.323 10.376C127.763 9.752 127.059 9.44 126.211 9.44C125.331 9.44 124.571 9.736 123.931 10.328C123.291 10.92 122.971 11.752 122.971 12.824V20H121.171V12.8C121.171 11.792 120.883 10.984 120.307 10.376C119.747 9.752 119.043 9.44 118.195 9.44C117.315 9.44 116.555 9.736 115.915 10.328C115.275 10.92 114.955 11.752 114.955 12.824V20H113.155ZM139.319 20.192C138.103 20.192 137.039 19.92 136.127 19.376C135.215 18.816 134.503 18.064 133.991 17.12C133.495 16.176 133.247 15.136 133.247 14C133.247 12.848 133.487 11.808 133.967 10.88C134.447 9.936 135.135 9.192 136.031 8.648C136.927 8.088 137.983 7.808 139.199 7.808C140.431 7.808 141.487 8.088 142.367 8.648C143.263 9.192 143.951 9.936 144.431 10.88C144.911 11.808 145.151 12.848 145.151 14V14.72H135.095C135.191 15.424 135.415 16.072 135.767 16.664C136.135 17.24 136.623 17.704 137.231 18.056C137.839 18.392 138.543 18.56 139.343 18.56C140.191 18.56 140.903 18.376 141.479 18.008C142.055 17.624 142.503 17.136 142.823 16.544H144.791C144.375 17.616 143.711 18.496 142.799 19.184C141.903 19.856 140.743 20.192 139.319 20.192ZM135.119 13.04H143.279C143.119 12.016 142.687 11.16 141.983 10.472C141.279 9.784 140.351 9.44 139.199 9.44C138.047 9.44 137.119 9.784 136.415 10.472C135.727 11.16 135.295 12.016 135.119 13.04ZM148.646 20V9.584H146.198V8H148.646V3.704H150.446V8H153.206V9.584H150.446V20H148.646ZM155.178 20V8H156.978V10.952C157.042 10.744 157.162 10.472 157.338 10.136C157.53 9.784 157.802 9.432 158.154 9.08C158.506 8.728 158.946 8.432 159.474 8.192C160.018 7.936 160.658 7.808 161.394 7.808H161.514V9.608H161.298C160.402 9.608 159.626 9.856 158.97 10.352C158.33 10.832 157.834 11.464 157.482 12.248C157.146 13.016 156.978 13.84 156.978 14.72V20H155.178ZM163.38 5.984V3.632H165.324V5.984H163.38ZM163.452 20V8H165.252V20H163.452ZM173.533 20.192C172.333 20.192 171.293 19.92 170.413 19.376C169.533 18.816 168.845 18.064 168.349 17.12C167.869 16.176 167.629 15.136 167.629 14C167.629 12.848 167.869 11.808 168.349 10.88C168.845 9.936 169.533 9.192 170.413 8.648C171.293 8.088 172.333 7.808 173.533 7.808C174.957 7.808 176.165 8.176 177.157 8.912C178.165 9.648 178.845 10.6 179.197 11.768H177.253C176.981 11.08 176.541 10.52 175.933 10.088C175.341 9.656 174.621 9.44 173.773 9.44C172.893 9.44 172.125 9.648 171.469 10.064C170.813 10.48 170.309 11.032 169.957 11.72C169.605 12.408 169.429 13.168 169.429 14C169.429 14.816 169.605 15.576 169.957 16.28C170.309 16.968 170.813 17.52 171.469 17.936C172.125 18.352 172.893 18.56 173.773 18.56C174.621 18.56 175.341 18.344 175.933 17.912C176.541 17.48 176.981 16.92 177.253 16.232H179.197C178.845 17.4 178.165 18.352 177.157 19.088C176.165 19.824 174.957 20.192 173.533 20.192ZM185.796 20.192C184.692 20.192 183.756 20.008 182.988 19.64C182.236 19.272 181.66 18.792 181.26 18.2C180.86 17.592 180.636 16.936 180.588 16.232H182.46C182.508 16.632 182.644 17.024 182.868 17.408C183.108 17.776 183.468 18.08 183.948 18.32C184.428 18.544 185.052 18.656 185.82 18.656C186.06 18.656 186.356 18.632 186.708 18.584C187.06 18.536 187.396 18.448 187.716 18.32C188.052 18.192 188.332 18 188.556 17.744C188.78 17.488 188.892 17.16 188.892 16.76C188.892 16.264 188.7 15.88 188.316 15.608C187.932 15.336 187.436 15.128 186.828 14.984C186.22 14.824 185.572 14.672 184.884 14.528C184.212 14.384 183.572 14.2 182.964 13.976C182.356 13.736 181.86 13.408 181.476 12.992C181.092 12.56 180.9 11.976 180.9 11.24C180.9 10.152 181.292 9.312 182.076 8.72C182.876 8.112 184.052 7.808 185.604 7.808C186.66 7.808 187.516 7.976 188.172 8.312C188.844 8.632 189.348 9.048 189.684 9.56C190.036 10.072 190.244 10.624 190.308 11.216H188.484C188.42 10.704 188.164 10.264 187.716 9.896C187.284 9.528 186.564 9.344 185.556 9.344C183.652 9.344 182.7 9.92 182.7 11.072C182.7 11.552 182.892 11.92 183.276 12.176C183.66 12.432 184.156 12.64 184.764 12.8C185.372 12.944 186.012 13.088 186.684 13.232C187.372 13.36 188.02 13.544 188.628 13.784C189.236 14.024 189.732 14.368 190.116 14.816C190.5 15.248 190.692 15.84 190.692 16.592C190.692 17.76 190.244 18.656 189.348 19.28C188.468 19.888 187.284 20.192 185.796 20.192Z" fill="black"/>
</svg>
