<svg width="312" height="354" viewBox="0 0 312 354" fill="none" xmlns="http://www.w3.org/2000/svg">
<rect y="279.525" width="78.0016" height="74.47" fill="white"/>
<rect x="77.9995" y="187.182" width="78.0016" height="166.814" fill="#0FD3BC"/>
<rect x="155.999" y="111.843" width="78.0016" height="242.152" fill="#FFA900"/>
<rect x="233.999" y="38.9999" width="78.0016" height="315" fill="#383FE4"/>
<path d="M11.5 266H52.5C60.0425 266 63.8137 266 66.1569 263.657C68.5 261.314 68.5 257.542 68.5 250V194C68.5 186.458 68.5 182.686 70.8431 180.343C73.1863 178 76.9575 178 84.5 178H128.5C136.042 178 139.814 178 142.157 175.657C144.5 173.314 144.5 169.542 144.5 162V116C144.5 108.458 144.5 104.686 146.843 102.343C149.186 100 152.958 100 160.5 100H205C212.542 100 216.314 100 218.657 97.6569C221 95.3137 221 91.5425 221 84V1" stroke="#B4B4B4" stroke-linecap="round" stroke-dasharray="5 5"/>
</svg>
