<svg width="249" height="33" viewBox="0 0 249 33" fill="none" xmlns="http://www.w3.org/2000/svg">
<path d="M24.1975 12.5949C24.1975 15.4497 24.2814 18.3326 24.1695 21.1874C24.1135 22.9786 23.4138 24.63 22.4622 26.1413C19.7193 30.3956 15.8009 32.3548 10.819 31.851C7.06851 31.4871 4.07374 29.6119 1.94661 26.3932C0.463222 24.1262 -0.180511 21.6632 0.0433975 19.0603C0.351271 15.3378 1.94662 12.1751 5.08133 9.99198C8.27202 7.7529 11.7986 7.22112 15.577 8.25669C16.2208 8.42463 16.8365 8.70451 17.4802 8.95641C18.152 9.23629 18.4039 9.09635 18.4318 8.34066C18.4598 6.88525 18.4318 5.45784 18.4318 4.00244C18.4598 2.37911 19.2995 1.39951 20.8668 1.11963C22.6021 0.811753 24.1975 2.01526 24.2255 3.77853C24.2535 6.68934 24.2255 9.65612 24.1975 12.5949ZM12.1904 25.9734C15.7729 26.0294 18.4318 22.9227 18.3199 19.62C18.2359 16.2614 15.3251 13.4905 11.8825 13.6305C8.8038 13.7424 5.80903 16.4293 5.92098 20.0119C6.03294 23.3145 8.97173 26.1693 12.1904 25.9734Z" fill="#3A3A3A"/>
<path d="M32.4821 16.7652C32.4821 19.5081 32.4821 22.2509 32.4821 24.9938C32.4821 26.3373 31.7264 27.4008 30.5229 27.8486C29.4313 28.2405 28.0039 27.9046 27.2762 26.897C26.9124 26.3932 26.6325 25.7215 26.6325 25.1338C26.5765 19.592 26.6325 14.0503 26.5765 8.50859C26.5485 6.68934 27.9479 4.84209 30.3829 5.34589C31.6144 5.59778 32.5381 6.82928 32.5381 8.39664C32.566 11.1955 32.5381 13.9943 32.5381 16.7652C32.5101 16.7652 32.4821 16.7652 32.4821 16.7652Z" fill="#CACACA"/>
<path d="M40.7667 18.6124C40.7667 20.7955 40.7667 22.9786 40.7667 25.1897C40.7667 26.7291 39.4512 27.9886 37.8839 28.0166C36.2325 28.0166 34.8891 26.813 34.8611 25.2737C34.8331 20.9355 34.8331 16.6252 34.8051 12.287C34.8051 11.1675 35.197 10.2159 36.1206 9.57213C37.0722 8.9004 39.5632 8.92839 40.2909 10.4678C40.6547 11.2234 40.7667 11.9511 40.7667 12.7628C40.7387 14.722 40.7667 16.6532 40.7667 18.6124Z" fill="#CACACA"/>
<path d="M48.9673 20.9075C48.9673 22.3349 48.9113 23.7344 48.9673 25.1618C49.0233 26.7011 47.4279 28.0166 46.0845 27.9886C44.3492 27.9606 43.0897 26.7571 43.0897 25.0778C43.0897 22.195 43.0897 19.3122 43.0897 16.4294C43.0897 15.3098 43.5375 14.4142 44.5451 13.9384C46.0005 13.2946 47.288 13.5745 48.2116 14.5261C48.7994 15.1419 48.9393 15.8416 48.9393 16.6253C48.9953 18.0807 48.9673 19.5081 48.9673 20.9075Z" fill="#CACACA"/>
<path d="M51.6542 22.9787C51.5143 21.4393 52.9976 20.2918 54.2851 20.2918C55.7405 20.2638 57 21.3833 57 23.0066C57 24.546 55.7965 25.6935 54.2851 25.6935C52.9697 25.6656 51.4863 24.462 51.6542 22.9787Z" fill="#555555"/>
<path d="M75.832 26.256C74.2747 26.256 72.9093 25.8933 71.736 25.168C70.584 24.4213 69.688 23.4187 69.048 22.16C68.408 20.9013 68.088 19.5147 68.088 18C68.088 16.464 68.408 15.0773 69.048 13.84C69.688 12.5813 70.584 11.5893 71.736 10.864C72.9093 10.1173 74.2747 9.744 75.832 9.744C77.1547 9.744 78.2853 10 79.224 10.512C80.184 11.024 80.9627 11.7173 81.56 12.592V3.6H83.96V26H81.56V23.44C80.9627 24.2933 80.184 24.976 79.224 25.488C78.2853 26 77.1547 26.256 75.832 26.256ZM76.152 24.08C77.3467 24.08 78.3493 23.8027 79.16 23.248C79.992 22.6933 80.6213 21.9573 81.048 21.04C81.4747 20.1013 81.688 19.088 81.688 18C81.688 16.8907 81.4747 15.8773 81.048 14.96C80.6213 14.0427 79.992 13.3067 79.16 12.752C78.3493 12.1973 77.3467 11.92 76.152 11.92C74.9787 11.92 73.9653 12.1973 73.112 12.752C72.2587 13.3067 71.608 14.0427 71.16 14.96C70.712 15.8773 70.488 16.8907 70.488 18C70.488 19.088 70.712 20.1013 71.16 21.04C71.608 21.9573 72.2587 22.6933 73.112 23.248C73.9653 23.8027 74.9787 24.08 76.152 24.08ZM94.8633 26.256C93.3059 26.256 91.9406 25.8933 90.7673 25.168C89.6153 24.4213 88.7193 23.4187 88.0793 22.16C87.4393 20.9013 87.1193 19.5147 87.1193 18C87.1193 16.464 87.4393 15.0773 88.0793 13.84C88.7193 12.5813 89.6153 11.5893 90.7673 10.864C91.9406 10.1173 93.3059 9.744 94.8633 9.744C96.1859 9.744 97.3166 10 98.2553 10.512C99.2153 11.024 99.9939 11.7173 100.591 12.592V10H102.991V26H100.591V23.44C99.9939 24.2933 99.2153 24.976 98.2553 25.488C97.3166 26 96.1859 26.256 94.8633 26.256ZM95.1833 24.08C96.3779 24.08 97.3806 23.8027 98.1913 23.248C99.0233 22.6933 99.6526 21.9573 100.079 21.04C100.506 20.1013 100.719 19.088 100.719 18C100.719 16.8907 100.506 15.8773 100.079 14.96C99.6526 14.0427 99.0233 13.3067 98.1913 12.752C97.3806 12.1973 96.3779 11.92 95.1833 11.92C94.0099 11.92 92.9966 12.1973 92.1433 12.752C91.2899 13.3067 90.6393 14.0427 90.1913 14.96C89.7433 15.8773 89.5193 16.8907 89.5193 18C89.5193 19.088 89.7433 20.1013 90.1913 21.04C90.6393 21.9573 91.2899 22.6933 92.1433 23.248C92.9966 23.8027 94.0099 24.08 95.1833 24.08ZM107.143 26V10H109.543V12.496C110.119 11.728 110.823 11.0773 111.655 10.544C112.487 10.0107 113.553 9.744 114.855 9.744C115.964 9.744 116.999 10.0107 117.959 10.544C118.94 11.056 119.729 11.8347 120.327 12.88C120.945 13.904 121.255 15.1733 121.255 16.688V26H118.855V16.752C118.855 15.3013 118.439 14.1387 117.607 13.264C116.775 12.368 115.697 11.92 114.375 11.92C113.479 11.92 112.668 12.1227 111.943 12.528C111.217 12.9333 110.631 13.5093 110.183 14.256C109.756 14.9813 109.543 15.824 109.543 16.784V26H107.143ZM132.02 26.256C130.462 26.256 129.097 25.8933 127.924 25.168C126.772 24.4213 125.876 23.4187 125.236 22.16C124.596 20.9013 124.276 19.5147 124.276 18C124.276 16.464 124.596 15.0773 125.236 13.84C125.876 12.5813 126.772 11.5893 127.924 10.864C129.097 10.1173 130.462 9.744 132.02 9.744C133.342 9.744 134.473 10 135.412 10.512C136.372 11.024 137.15 11.7173 137.748 12.592V10H140.148V26H137.748V23.44C137.15 24.2933 136.372 24.976 135.412 25.488C134.473 26 133.342 26.256 132.02 26.256ZM132.34 24.08C133.534 24.08 134.537 23.8027 135.348 23.248C136.18 22.6933 136.809 21.9573 137.236 21.04C137.662 20.1013 137.876 19.088 137.876 18C137.876 16.8907 137.662 15.8773 137.236 14.96C136.809 14.0427 136.18 13.3067 135.348 12.752C134.537 12.1973 133.534 11.92 132.34 11.92C131.166 11.92 130.153 12.1973 129.3 12.752C128.446 13.3067 127.796 14.0427 127.348 14.96C126.9 15.8773 126.676 16.8907 126.676 18C126.676 19.088 126.9 20.1013 127.348 21.04C127.796 21.9573 128.446 22.6933 129.3 23.248C130.153 23.8027 131.166 24.08 132.34 24.08ZM144.299 26V10H146.699V12.432C147.061 11.792 147.637 11.184 148.427 10.608C149.216 10.032 150.261 9.744 151.563 9.744C152.629 9.744 153.611 10.032 154.507 10.608C155.424 11.1627 156.139 11.952 156.651 12.976C156.864 12.6133 157.195 12.176 157.643 11.664C158.112 11.152 158.72 10.704 159.467 10.32C160.213 9.936 161.109 9.744 162.155 9.744C163.179 9.744 164.139 10.0107 165.035 10.544C165.931 11.0773 166.656 11.8453 167.211 12.848C167.787 13.8293 168.075 14.992 168.075 16.336V26H165.675V16.4C165.675 15.056 165.291 13.9787 164.523 13.168C163.776 12.336 162.837 11.92 161.707 11.92C160.533 11.92 159.52 12.3147 158.667 13.104C157.813 13.8933 157.387 15.0027 157.387 16.432V26H154.987V16.4C154.987 15.056 154.603 13.9787 153.835 13.168C153.088 12.336 152.149 11.92 151.019 11.92C149.845 11.92 148.832 12.3147 147.979 13.104C147.125 13.8933 146.699 15.0027 146.699 16.432V26H144.299ZM179.184 26.256C177.563 26.256 176.144 25.8933 174.928 25.168C173.712 24.4213 172.763 23.4187 172.08 22.16C171.419 20.9013 171.088 19.5147 171.088 18C171.088 16.464 171.408 15.0773 172.048 13.84C172.688 12.5813 173.605 11.5893 174.8 10.864C175.995 10.1173 177.403 9.744 179.024 9.744C180.667 9.744 182.075 10.1173 183.248 10.864C184.443 11.5893 185.36 12.5813 186 13.84C186.64 15.0773 186.96 16.464 186.96 18V18.96H173.552C173.68 19.8987 173.979 20.7627 174.448 21.552C174.939 22.32 175.589 22.9387 176.4 23.408C177.211 23.856 178.149 24.08 179.216 24.08C180.347 24.08 181.296 23.8347 182.064 23.344C182.832 22.832 183.429 22.1813 183.856 21.392H186.48C185.925 22.8213 185.04 23.9947 183.824 24.912C182.629 25.808 181.083 26.256 179.184 26.256ZM173.584 16.72H184.464C184.251 15.3547 183.675 14.2133 182.736 13.296C181.797 12.3787 180.56 11.92 179.024 11.92C177.488 11.92 176.251 12.3787 175.312 13.296C174.395 14.2133 173.819 15.3547 173.584 16.72ZM191.621 26V12.112H188.357V10H191.621V4.272H194.021V10H197.701V12.112H194.021V26H191.621ZM200.33 26V10H202.73V13.936C202.815 13.6587 202.975 13.296 203.21 12.848C203.466 12.3787 203.829 11.9093 204.298 11.44C204.767 10.9707 205.354 10.576 206.058 10.256C206.783 9.91467 207.637 9.744 208.618 9.744H208.778V12.144H208.49C207.295 12.144 206.261 12.4747 205.386 13.136C204.533 13.776 203.871 14.6187 203.402 15.664C202.954 16.688 202.73 17.7867 202.73 18.96V26H200.33ZM211.265 7.312V4.176H213.857V7.312H211.265ZM211.361 26V10H213.761V26H211.361ZM224.804 26.256C223.204 26.256 221.817 25.8933 220.644 25.168C219.47 24.4213 218.553 23.4187 217.892 22.16C217.252 20.9013 216.932 19.5147 216.932 18C216.932 16.464 217.252 15.0773 217.892 13.84C218.553 12.5813 219.47 11.5893 220.644 10.864C221.817 10.1173 223.204 9.744 224.804 9.744C226.702 9.744 228.313 10.2347 229.636 11.216C230.98 12.1973 231.886 13.4667 232.356 15.024H229.764C229.401 14.1067 228.814 13.36 228.004 12.784C227.214 12.208 226.254 11.92 225.124 11.92C223.95 11.92 222.926 12.1973 222.052 12.752C221.177 13.3067 220.505 14.0427 220.036 14.96C219.566 15.8773 219.332 16.8907 219.332 18C219.332 19.088 219.566 20.1013 220.036 21.04C220.505 21.9573 221.177 22.6933 222.052 23.248C222.926 23.8027 223.95 24.08 225.124 24.08C226.254 24.08 227.214 23.792 228.004 23.216C228.814 22.64 229.401 21.8933 229.764 20.976H232.356C231.886 22.5333 230.98 23.8027 229.636 24.784C228.313 25.7653 226.702 26.256 224.804 26.256ZM241.154 26.256C239.682 26.256 238.434 26.0107 237.41 25.52C236.407 25.0293 235.639 24.3893 235.106 23.6C234.573 22.7893 234.274 21.9147 234.21 20.976H236.706C236.77 21.5093 236.951 22.032 237.25 22.544C237.57 23.0347 238.05 23.44 238.69 23.76C239.33 24.0587 240.162 24.208 241.186 24.208C241.506 24.208 241.901 24.176 242.37 24.112C242.839 24.048 243.287 23.9307 243.714 23.76C244.162 23.5893 244.535 23.3333 244.834 22.992C245.133 22.6507 245.282 22.2133 245.282 21.68C245.282 21.0187 245.026 20.5067 244.514 20.144C244.002 19.7813 243.341 19.504 242.53 19.312C241.719 19.0987 240.855 18.896 239.938 18.704C239.042 18.512 238.189 18.2667 237.378 17.968C236.567 17.648 235.906 17.2107 235.394 16.656C234.882 16.08 234.626 15.3013 234.626 14.32C234.626 12.8693 235.149 11.7493 236.194 10.96C237.261 10.1493 238.829 9.744 240.898 9.744C242.306 9.744 243.447 9.968 244.322 10.416C245.218 10.8427 245.89 11.3973 246.338 12.08C246.807 12.7627 247.085 13.4987 247.17 14.288H244.738C244.653 13.6053 244.311 13.0187 243.714 12.528C243.138 12.0373 242.178 11.792 240.834 11.792C238.295 11.792 237.026 12.56 237.026 14.096C237.026 14.736 237.282 15.2267 237.794 15.568C238.306 15.9093 238.967 16.1867 239.778 16.4C240.589 16.592 241.442 16.784 242.338 16.976C243.255 17.1467 244.119 17.392 244.93 17.712C245.741 18.032 246.402 18.4907 246.914 19.088C247.426 19.664 247.682 20.4533 247.682 21.456C247.682 23.0133 247.085 24.208 245.89 25.04C244.717 25.8507 243.138 26.256 241.154 26.256Z" fill="#3A3A3A"/>
</svg>
